<svg version="1.1" width="1000" height="500" xmlns="http://www.w3.org/2000/svg">
<polyline fill="none" stroke="#0074d9" stroke-width="3"
points="70, 336.837
70.2389, 347.188
70.4778, 314.984
70.7167, 329.936
70.9556, 336.837
71.1944, 340.288
71.4333, 350.639
71.6722, 343.738
71.9111, 350.639
72.15, 350.639
72.3889, 347.188
72.6278, 347.188
72.8667, 343.738
73.1056, 343.738
73.3444, 347.188
73.5833, 343.738
73.8222, 347.188
74.0611, 340.288
74.3, 340.288
74.5389, 343.738
74.7778, 336.837
75.0167, 340.288
75.2556, 329.936
75.4944, 303.482
75.7333, 321.885
75.9722, 329.936
76.2111, 336.837
76.45, 333.387
76.6889, 336.837
76.9278, 336.837
77.1667, 333.387
77.4056, 340.288
77.6444, 333.387
77.8833, 333.387
78.1222, 321.885
78.3611, 326.486
78.6, 321.885
78.8389, 326.486
79.0778, 329.936
79.3167, 326.486
79.5556, 333.387
79.7944, 333.387
80.0333, 318.435
80.2722, 308.083
80.5111, 303.482
80.75, 311.534
80.9889, 308.083
81.2278, 314.984
81.4667, 311.534
81.7056, 321.885
81.9444, 326.486
82.1833, 326.486
82.4222, 321.885
82.6611, 326.486
82.9, 326.486
83.1389, 318.435
83.3778, 321.885
83.6167, 329.936
83.8556, 318.435
84.0944, 329.936
84.3333, 326.486
84.5722, 326.486
84.8111, 326.486
85.05, 326.486
85.2889, 329.936
85.5278, 329.936
85.7667, 336.837
86.0056, 329.936
86.2444, 336.837
86.4833, 329.936
86.7222, 333.387
86.9611, 321.885
87.2, 300.032
87.4389, 314.984
87.6778, 321.885
87.9167, 326.486
88.1556, 326.486
88.3944, 326.486
88.6333, 308.083
88.8722, 311.534
89.1111, 321.885
89.35, 300.032
89.5889, 311.534
89.8278, 314.984
90.0667, 318.435
90.3056, 318.435
90.5444, 300.032
90.7833, 314.984
91.0222, 318.435
91.2611, 318.435
91.5, 311.534
91.7389, 311.534
91.9778, 321.885
92.2167, 326.486
92.4556, 321.885
92.6944, 326.486
92.9333, 321.885
93.1722, 326.486
93.4111, 318.435
93.65, 311.534
93.8889, 326.486
94.1278, 326.486
94.3667, 329.936
94.6056, 314.984
94.8444, 326.486
95.0833, 326.486
95.3222, 329.936
95.5611, 329.936
95.8, 326.486
96.0389, 311.534
96.2778, 300.032
96.5167, 318.435
96.7556, 329.936
96.9944, 303.482
97.2333, 318.435
97.4722, 321.885
97.7111, 333.387
97.95, 333.387
98.1889, 336.837
98.4278, 336.837
98.6667, 336.837
98.9056, 326.486
99.1444, 336.837
99.3833, 318.435
99.6222, 329.936
99.8611, 333.387
100.1, 340.288
100.339, 340.288
100.578, 326.486
100.817, 333.387
101.056, 296.581
101.294, 314.984
101.533, 314.984
101.772, 282.78
102.011, 308.083
102.25, 314.984
102.489, 326.486
102.728, 329.936
102.967, 333.387
103.206, 326.486
103.444, 311.534
103.683, 318.435
103.922, 321.885
104.161, 329.936
104.4, 321.885
104.639, 303.482
104.878, 308.083
105.117, 311.534
105.356, 314.984
105.594, 321.885
105.833, 321.885
106.072, 326.486
106.311, 326.486
106.55, 329.936
106.789, 303.482
107.028, 300.032
107.267, 308.083
107.506, 314.984
107.744, 321.885
107.983, 318.435
108.222, 318.435
108.461, 318.435
108.7, 321.885
108.939, 326.486
109.178, 321.885
109.417, 318.435
109.656, 326.486
109.894, 321.885
110.133, 303.482
110.372, 311.534
110.611, 308.083
110.85, 311.534
111.089, 321.885
111.328, 318.435
111.567, 314.984
111.806, 318.435
112.044, 321.885
112.283, 318.435
112.522, 321.885
112.761, 286.23
113, 303.482
113.239, 314.984
113.478, 321.885
113.717, 318.435
113.956, 326.486
114.194, 321.885
114.433, 326.486
114.672, 314.984
114.911, 321.885
115.15, 326.486
115.389, 326.486
115.628, 321.885
115.867, 314.984
116.106, 314.984
116.344, 314.984
116.583, 293.131
116.822, 300.032
117.061, 314.984
117.3, 318.435
117.539, 321.885
117.778, 318.435
118.017, 318.435
118.256, 314.984
118.494, 303.482
118.733, 311.534
118.972, 311.534
119.211, 318.435
119.45, 314.984
119.689, 314.984
119.928, 321.885
120.167, 326.486
120.406, 321.885
120.644, 314.984
120.883, 321.885
121.122, 326.486
121.361, 318.435
121.6, 321.885
121.839, 318.435
122.078, 314.984
122.317, 321.885
122.556, 321.885
122.794, 321.885
123.033, 326.486
123.272, 321.885
123.511, 314.984
123.75, 289.681
123.989, 311.534
124.228, 314.984
124.467, 314.984
124.706, 314.984
124.944, 318.435
125.183, 318.435
125.422, 318.435
125.661, 321.885
125.9, 321.885
126.139, 321.885
126.378, 326.486
126.617, 311.534
126.856, 311.534
127.094, 314.984
127.333, 314.984
127.572, 318.435
127.811, 318.435
128.05, 321.885
128.289, 314.984
128.528, 326.486
128.767, 321.885
129.006, 326.486
129.244, 326.486
129.483, 321.885
129.722, 275.879
129.961, 229.872
130.2, 229.872
130.439, 229.872
130.678, 229.872
130.917, 229.872
131.156, 234.473
131.394, 229.872
131.633, 234.473
131.872, 234.473
132.111, 229.872
132.35, 237.923
132.589, 229.872
132.828, 229.872
133.067, 229.872
133.306, 229.872
133.544, 229.872
133.783, 229.872
134.022, 241.374
134.261, 245.974
134.5, 237.923
134.739, 229.872
134.978, 229.872
135.217, 237.923
135.456, 237.923
135.694, 229.872
135.933, 245.974
136.172, 293.131
136.411, 321.885
136.65, 340.288
136.889, 336.837
137.128, 329.936
137.367, 311.534
137.606, 308.083
137.844, 323.035
138.083, 319.585
138.322, 326.486
138.561, 329.936
138.8, 336.837
139.039, 333.387
139.278, 303.482
139.517, 303.482
139.756, 288.53
139.994, 311.534
140.233, 245.974
140.472, 213.77
140.711, 213.77
140.95, 213.77
141.189, 213.77
141.428, 213.77
141.667, 213.77
141.906, 213.77
142.144, 213.77
142.383, 213.77
142.622, 213.77
142.861, 213.77
143.1, 213.77
143.339, 213.77
143.578, 213.77
143.817, 218.371
144.056, 213.77
144.294, 218.371
144.533, 213.77
144.772, 218.371
145.011, 221.821
145.25, 213.77
145.489, 213.77
145.728, 213.77
145.967, 213.77
146.206, 213.77
146.444, 252.875
146.683, 300.032
146.922, 314.984
147.161, 314.984
147.4, 329.936
147.639, 326.486
147.878, 323.035
148.117, 329.936
148.356, 329.936
148.594, 336.837
148.833, 336.837
149.072, 333.387
149.311, 333.387
149.55, 336.837
149.789, 340.288
150.028, 326.486
150.267, 326.486
150.506, 218.371
150.744, 213.77
150.983, 213.77
151.222, 218.371
151.461, 218.371
151.7, 218.371
151.939, 218.371
152.178, 213.77
152.417, 213.77
152.656, 213.77
152.894, 213.77
153.133, 213.77
153.372, 218.371
153.611, 213.77
153.85, 213.77
154.089, 213.77
154.328, 213.77
154.567, 213.77
154.806, 218.371
155.044, 218.371
155.283, 213.77
155.522, 221.821
155.761, 218.371
156, 221.821
156.239, 218.371
156.478, 221.821
156.717, 218.371
156.956, 221.821
157.194, 226.422
157.433, 229.872
157.672, 226.422
157.911, 218.371
158.15, 221.821
158.389, 221.821
158.628, 221.821
158.867, 233.323
159.106, 229.872
159.344, 213.77
159.583, 218.371
159.822, 226.422
160.061, 213.77
160.3, 226.422
160.539, 218.371
160.778, 221.821
161.017, 428.85
161.256, 221.821
161.494, 229.872
161.733, 221.821
161.972, 226.422
162.211, 221.821
162.45, 226.422
162.689, 226.422
162.928, 268.978
163.167, 300.032
163.406, 323.035
163.644, 340.288
163.883, 347.188
164.122, 347.188
164.361, 314.984
164.6, 321.885
164.839, 333.387
165.078, 340.288
165.317, 340.288
165.556, 343.738
165.794, 329.936
166.033, 336.837
166.272, 333.387
166.511, 347.188
166.75, 326.486
166.989, 326.486
167.228, 340.288
167.467, 350.639
167.706, 352.939
167.944, 356.39
168.183, 359.84
168.422, 356.39
168.661, 352.939
168.9, 352.939
169.139, 356.39
169.378, 359.84
169.617, 356.39
169.856, 356.39
170.094, 352.939
170.333, 352.939
170.572, 352.939
170.811, 347.188
171.05, 249.425
171.289, 249.425
171.528, 239.073
171.767, 239.073
172.006, 239.073
172.244, 243.674
172.483, 243.674
172.722, 233.323
172.961, 233.323
173.2, 243.674
173.439, 243.674
173.678, 249.425
173.917, 243.674
174.156, 264.377
174.394, 274.728
174.633, 254.026
174.872, 264.377
175.111, 254.026
175.35, 254.026
175.589, 233.323
175.828, 239.073
176.067, 243.674
176.306, 243.674
176.544, 222.971
176.783, 243.674
177.022, 239.073
177.261, 239.073
177.5, 239.073
177.739, 233.323
177.978, 239.073
178.217, 228.722
178.456, 243.674
178.694, 243.674
178.933, 233.323
179.172, 212.62
179.411, 228.722
179.65, 233.323
179.889, 222.971
180.128, 249.425
180.367, 228.722
180.606, 243.674
180.844, 239.073
181.083, 239.073
181.322, 233.323
181.561, 202.268
181.8, 233.323
182.039, 233.323
182.278, 222.971
182.517, 222.971
182.756, 222.971
182.994, 233.323
183.233, 217.22
183.472, 239.073
183.711, 228.722
183.95, 233.323
184.189, 239.073
184.428, 228.722
184.667, 243.674
184.906, 239.073
185.144, 254.026
185.383, 228.722
185.622, 212.62
185.861, 212.62
186.1, 222.971
186.339, 222.971
186.578, 222.971
186.817, 228.722
187.056, 233.323
187.294, 212.62
187.533, 239.073
187.772, 228.722
188.011, 228.722
188.25, 228.722
188.489, 217.22
188.728, 222.971
188.967, 222.971
189.206, 228.722
189.444, 206.869
189.683, 233.323
189.922, 233.323
190.161, 228.722
190.4, 233.323
190.639, 239.073
190.878, 217.22
191.117, 217.22
191.356, 233.323
191.594, 243.674
191.833, 233.323
192.072, 233.323
192.311, 159.712
192.55, 159.712
192.789, 152.812
193.028, 174.665
193.267, 187.316
193.506, 162.013
193.744, 181.565
193.983, 181.565
194.222, 181.565
194.461, 187.316
194.7, 168.914
194.939, 162.013
195.178, 181.565
195.417, 174.665
195.656, 174.665
195.894, 181.565
196.133, 156.262
196.372, 174.665
196.611, 156.262
196.85, 174.665
197.089, 162.013
197.328, 162.013
197.567, 187.316
197.806, 174.665
198.044, 174.665
198.283, 181.565
198.522, 174.665
198.761, 174.665
199, 136.709
199.239, 168.914
199.478, 181.565
199.717, 162.013
199.956, 174.665
200.194, 168.914
200.433, 181.565
200.672, 187.316
200.911, 162.013
201.15, 149.361
201.389, 174.665
201.628, 174.665
201.867, 174.665
202.106, 168.914
202.344, 168.914
202.583, 162.013
202.822, 162.013
203.061, 156.262
203.3, 156.262
203.539, 168.914
203.778, 181.565
204.017, 168.914
204.256, 174.665
204.494, 162.013
204.733, 187.316
204.972, 168.914
205.211, 156.262
205.45, 174.665
205.689, 168.914
205.928, 162.013
206.167, 174.665
206.406, 168.914
206.644, 181.565
206.883, 181.565
207.122, 174.665
207.361, 181.565
207.6, 181.565
207.839, 174.665
208.078, 174.665
208.317, 174.665
208.556, 174.665
208.794, 168.914
209.033, 149.361
209.272, 149.361
209.511, 187.316
209.75, 168.914
209.989, 168.914
210.228, 174.665
210.467, 156.262
210.706, 187.316
210.944, 168.914
211.183, 187.316
211.422, 174.665
211.661, 168.914
211.9, 162.013
212.139, 181.565
212.378, 168.914
212.617, 168.914
212.856, 162.013
213.094, 174.665
213.333, 194.217
213.572, 305.783
213.811, 336.837
214.05, 340.288
214.289, 333.387
214.528, 318.435
214.767, 326.486
215.006, 336.837
215.244, 336.837
215.483, 340.288
215.722, 340.288
215.961, 340.288
216.2, 343.738
216.439, 329.936
216.678, 321.885
216.917, 326.486
217.156, 333.387
217.394, 347.188
217.633, 347.188
217.872, 350.639
218.111, 336.837
218.35, 347.188
218.589, 347.188
218.828, 352.939
219.067, 350.639
219.306, 350.639
219.544, 333.387
219.783, 336.837
220.022, 340.288
220.261, 347.188
220.5, 350.639
220.739, 350.639
220.978, 347.188
221.217, 347.188
221.456, 350.639
221.694, 347.188
221.933, 350.639
222.172, 347.188
222.411, 343.738
222.65, 343.738
222.889, 350.639
223.128, 343.738
223.367, 343.738
223.606, 343.738
223.844, 343.738
224.083, 350.639
224.322, 343.738
224.561, 350.639
224.8, 347.188
225.039, 350.639
225.278, 350.639
225.517, 352.939
225.756, 350.639
225.994, 347.188
226.233, 350.639
226.472, 340.288
226.711, 347.188
226.95, 347.188
227.189, 350.639
227.428, 350.639
227.667, 343.738
227.906, 225.272
228.144, 166.613
228.383, 172.364
228.622, 133.259
228.861, 185.016
229.1, 172.364
229.339, 166.613
229.578, 166.613
229.817, 172.364
230.056, 152.812
230.294, 152.812
230.533, 172.364
230.772, 166.613
231.011, 166.613
231.25, 159.712
231.489, 159.712
231.728, 172.364
231.967, 166.613
232.206, 152.812
232.444, 179.265
232.683, 127.508
232.922, 159.712
233.161, 166.613
233.4, 159.712
233.639, 159.712
233.878, 159.712
234.117, 166.613
234.356, 152.812
234.594, 159.712
234.833, 166.613
235.072, 159.712
235.311, 152.812
235.55, 159.712
235.789, 166.613
236.028, 133.259
236.267, 172.364
236.506, 166.613
236.744, 159.712
236.983, 166.613
237.222, 172.364
237.461, 179.265
237.7, 147.061
237.939, 185.016
238.178, 159.712
238.417, 159.712
238.656, 159.712
238.894, 172.364
239.133, 159.712
239.372, 147.061
239.611, 166.613
239.85, 147.061
240.089, 172.364
240.328, 179.265
240.567, 152.812
240.806, 172.364
241.044, 159.712
241.283, 140.16
241.522, 152.812
241.761, 159.712
242, 147.061
242.239, 166.613
242.478, 166.613
242.717, 159.712
242.956, 159.712
243.194, 166.613
243.433, 152.812
243.672, 113.706
243.911, 159.712
244.15, 147.061
244.389, 140.16
244.628, 152.812
244.867, 159.712
245.106, 147.061
245.344, 166.613
245.583, 166.613
245.822, 133.259
246.061, 166.613
246.3, 166.613
246.539, 166.613
246.778, 147.061
247.017, 147.061
247.256, 147.061
247.494, 147.061
247.733, 147.061
247.972, 152.812
248.211, 120.607
248.45, 166.613
248.689, 172.364
248.928, 152.812
249.167, 147.061
249.406, 166.613
249.644, 166.613
249.883, 147.061
250.122, 172.364
250.361, 152.812
250.6, 159.712
250.839, 147.061
251.078, 159.712
251.317, 159.712
251.556, 159.712
251.794, 147.061
252.033, 147.061
252.272, 147.061
252.511, 159.712
252.75, 172.364
252.989, 147.061
253.228, 159.712
253.467, 140.16
253.706, 152.812
253.944, 159.712
254.183, 140.16
254.422, 159.712
254.661, 159.712
254.9, 147.061
255.139, 166.613
255.378, 159.712
255.617, 147.061
255.856, 159.712
256.094, 127.508
256.333, 140.16
256.572, 159.712
256.811, 152.812
257.05, 152.812
257.289, 147.061
257.528, 147.061
257.767, 159.712
258.006, 172.364
258.244, 140.16
258.483, 106.805
258.722, 166.613
258.961, 172.364
259.2, 166.613
259.439, 166.613
259.678, 152.812
259.917, 133.259
260.156, 166.613
260.394, 166.613
260.633, 172.364
260.872, 166.613
261.111, 166.613
261.35, 166.613
261.589, 159.712
261.828, 179.265
262.067, 179.265
262.306, 185.016
262.544, 172.364
262.783, 172.364
263.022, 166.613
263.261, 166.613
263.5, 185.016
263.739, 172.364
263.978, 185.016
264.217, 166.613
264.456, 185.016
264.694, 166.613
264.933, 147.061
265.172, 172.364
265.411, 185.016
265.65, 172.364
265.889, 179.265
266.128, 172.364
266.367, 166.613
266.606, 172.364
266.844, 166.613
267.083, 179.265
267.322, 172.364
267.561, 172.364
267.8, 159.712
268.039, 179.265
268.278, 152.812
268.517, 179.265
268.756, 179.265
268.994, 159.712
269.233, 185.016
269.472, 172.364
269.711, 179.265
269.95, 166.613
270.189, 179.265
270.428, 159.712
270.667, 152.812
270.906, 166.613
271.144, 147.061
271.383, 166.613
271.622, 166.613
271.861, 159.712
272.1, 166.613
272.339, 120.607
272.578, 166.613
272.817, 185.016
273.056, 166.613
273.294, 179.265
273.533, 166.613
273.772, 166.613
274.011, 172.364
274.25, 159.712
274.489, 172.364
274.728, 159.712
274.967, 185.016
275.206, 152.812
275.444, 179.265
275.683, 172.364
275.922, 166.613
276.161, 159.712
276.4, 166.613
276.639, 172.364
276.878, 152.812
277.117, 172.364
277.356, 166.613
277.594, 159.712
277.833, 133.259
278.072, 166.613
278.311, 166.613
278.55, 172.364
278.789, 159.712
279.028, 179.265
279.267, 152.812
279.506, 166.613
279.744, 166.613
279.983, 152.812
280.222, 147.061
280.461, 159.712
280.7, 159.712
280.939, 152.812
281.178, 166.613
281.417, 159.712
281.656, 166.613
281.894, 152.812
282.133, 159.712
282.372, 179.265
282.611, 140.16
282.85, 166.613
283.089, 159.712
283.328, 185.016
283.567, 166.613
283.806, 179.265
284.044, 159.712
284.283, 185.016
284.522, 159.712
284.761, 172.364
285, 191.917
285.239, 251.725
285.478, 254.026
285.717, 249.425
285.956, 233.323
286.194, 249.425
286.433, 249.425
286.672, 259.776
286.911, 259.776
287.15, 264.377
287.389, 239.073
287.628, 228.722
287.867, 222.971
288.106, 249.425
288.344, 239.073
288.583, 249.425
288.822, 259.776
289.061, 264.377
289.3, 254.026
289.539, 259.776
289.778, 264.377
290.017, 264.377
290.256, 228.722
290.494, 243.674
290.733, 254.026
290.972, 254.026
291.211, 239.073
291.45, 243.674
291.689, 249.425
291.928, 249.425
292.167, 243.674
292.406, 186.166
292.644, 233.323
292.883, 233.323
293.122, 233.323
293.361, 243.674
293.6, 239.073
293.839, 239.073
294.078, 233.323
294.317, 222.971
294.556, 243.674
294.794, 249.425
295.033, 249.425
295.272, 243.674
295.511, 249.425
295.75, 239.073
295.989, 249.425
296.228, 233.323
296.467, 249.425
296.706, 243.674
296.944, 254.026
297.183, 249.425
297.422, 243.674
297.661, 243.674
297.9, 254.026
298.139, 243.674
298.378, 228.722
298.617, 228.722
298.856, 249.425
299.094, 254.026
299.333, 249.425
299.572, 243.674
299.811, 259.776
300.05, 243.674
300.289, 254.026
300.528, 249.425
300.767, 243.674
301.006, 243.674
301.244, 254.026
301.483, 249.425
301.722, 259.776
301.961, 243.674
302.2, 233.323
302.439, 222.971
302.678, 239.073
302.917, 249.425
303.156, 243.674
303.394, 249.425
303.633, 254.026
303.872, 254.026
304.111, 243.674
304.35, 249.425
304.589, 249.425
304.828, 254.026
305.067, 239.073
305.306, 249.425
305.544, 259.776
305.783, 243.674
306.022, 254.026
306.261, 249.425
306.5, 243.674
306.739, 249.425
306.978, 239.073
307.217, 243.674
307.456, 249.425
307.694, 249.425
307.933, 243.674
308.172, 259.776
308.411, 254.026
308.65, 264.377
308.889, 249.425
309.128, 264.377
309.367, 249.425
309.606, 254.026
309.844, 243.674
310.083, 254.026
310.322, 243.674
310.561, 233.323
310.8, 228.722
311.039, 249.425
311.278, 239.073
311.517, 254.026
311.756, 243.674
311.994, 239.073
312.233, 243.674
312.472, 239.073
312.711, 243.674
312.95, 233.323
313.189, 249.425
313.428, 233.323
313.667, 243.674
313.906, 239.073
314.144, 249.425
314.383, 233.323
314.622, 249.425
314.861, 249.425
315.1, 259.776
315.339, 217.22
315.578, 249.425
315.817, 243.674
316.056, 254.026
316.294, 243.674
316.533, 264.377
316.772, 254.026
317.011, 254.026
317.25, 254.026
317.489, 243.674
317.728, 249.425
317.967, 243.674
318.206, 249.425
318.444, 249.425
318.683, 212.62
318.922, 222.971
319.161, 243.674
319.4, 249.425
319.639, 243.674
319.878, 243.674
320.117, 239.073
320.356, 249.425
320.594, 249.425
320.833, 254.026
321.072, 243.674
321.311, 249.425
321.55, 243.674
321.789, 254.026
322.028, 259.776
322.267, 254.026
322.506, 254.026
322.744, 243.674
322.983, 239.073
323.222, 239.073
323.461, 249.425
323.7, 254.026
323.939, 254.026
324.178, 259.776
324.417, 243.674
324.656, 243.674
324.894, 233.323
325.133, 212.62
325.372, 239.073
325.611, 249.425
325.85, 222.971
326.089, 222.971
326.328, 228.722
326.567, 249.425
326.806, 243.674
327.044, 249.425
327.283, 222.971
327.522, 222.971
327.761, 239.073
328, 239.073
328.239, 239.073
328.478, 243.674
328.717, 239.073
328.956, 228.722
329.194, 222.971
329.433, 239.073
329.672, 233.323
329.911, 239.073
330.15, 239.073
330.389, 243.674
330.628, 243.674
330.867, 243.674
331.106, 217.22
331.344, 239.073
331.583, 233.323
331.822, 239.073
332.061, 243.674
332.3, 243.674
332.539, 249.425
332.778, 243.674
333.017, 206.869
333.256, 222.971
333.494, 243.674
333.733, 239.073
333.972, 233.323
334.211, 254.026
334.45, 228.722
334.689, 217.22
334.928, 228.722
335.167, 239.073
335.406, 264.377
335.644, 206.869
335.883, 243.674
336.122, 239.073
336.361, 249.425
336.6, 243.674
336.839, 259.776
337.078, 254.026
337.317, 239.073
337.556, 239.073
337.794, 259.776
338.033, 239.073
338.272, 254.026
338.511, 239.073
338.75, 254.026
338.989, 233.323
339.228, 233.323
339.467, 212.62
339.706, 233.323
339.944, 249.425
340.183, 259.776
340.422, 249.425
340.661, 249.425
340.9, 249.425
341.139, 228.722
341.378, 239.073
341.617, 259.776
341.856, 259.776
342.094, 264.377
342.333, 268.978
342.572, 233.323
342.811, 197.668
343.05, 166.613
343.289, 185.016
343.528, 166.613
343.767, 191.917
344.006, 185.016
344.244, 179.265
344.483, 185.016
344.722, 185.016
344.961, 147.061
345.2, 179.265
345.439, 185.016
345.678, 185.016
345.917, 185.016
346.156, 166.613
346.394, 185.016
346.633, 152.812
346.872, 159.712
347.111, 185.016
347.35, 166.613
347.589, 185.016
347.828, 166.613
348.067, 185.016
348.306, 172.364
348.544, 172.364
348.783, 179.265
349.022, 179.265
349.261, 185.016
349.5, 178.115
349.739, 185.016
349.978, 159.712
350.217, 159.712
350.456, 191.917
350.694, 185.016
350.933, 159.712
351.172, 179.265
351.411, 179.265
351.65, 172.364
351.889, 185.016
352.128, 166.613
352.367, 172.364
352.606, 152.812
352.844, 159.712
353.083, 179.265
353.322, 172.364
353.561, 152.812
353.8, 179.265
354.039, 172.364
354.278, 179.265
354.517, 166.613
354.756, 147.061
354.994, 179.265
355.233, 166.613
355.472, 172.364
355.711, 197.668
355.95, 185.016
356.189, 172.364
356.428, 185.016
356.667, 191.917
356.906, 147.061
357.144, 166.613
357.383, 172.364
357.622, 159.712
357.861, 133.259
358.1, 179.265
358.339, 172.364
358.578, 185.016
358.817, 185.016
359.056, 172.364
359.294, 159.712
359.533, 144.76
359.772, 127.508
360.011, 166.613
360.25, 179.265
360.489, 172.364
360.728, 185.016
360.967, 166.613
361.206, 159.712
361.444, 152.812
361.683, 179.265
361.922, 158.562
362.161, 172.364
362.4, 140.16
362.639, 166.613
362.878, 159.712
363.117, 166.613
363.356, 172.364
363.594, 165.463
363.833, 166.613
364.072, 172.364
364.311, 179.265
364.55, 172.364
364.789, 159.712
365.028, 166.613
365.267, 152.812
365.506, 99.9042
365.744, 172.364
365.983, 172.364
366.222, 166.613
366.461, 172.364
366.7, 172.364
366.939, 172.364
367.178, 147.061
367.417, 159.712
367.656, 191.917
367.894, 158.562
368.133, 166.613
368.372, 179.265
368.611, 166.613
368.85, 165.463
369.089, 158.562
369.328, 166.613
369.567, 179.265
369.806, 185.016
370.044, 179.265
370.283, 172.364
370.522, 172.364
370.761, 172.364
371, 158.562
371.239, 178.115
371.478, 172.364
371.717, 172.364
371.956, 185.016
372.194, 165.463
372.433, 151.661
372.672, 140.16
372.911, 179.265
373.15, 137.859
373.389, 159.712
373.628, 166.613
373.867, 166.613
374.106, 185.016
374.344, 179.265
374.583, 172.364
374.822, 144.76
375.061, 179.265
375.3, 159.712
375.539, 172.364
375.778, 185.016
376.017, 147.061
376.256, 166.613
376.494, 166.613
376.733, 185.016
376.972, 152.812
377.211, 191.917
377.45, 166.613
377.689, 172.364
377.928, 172.364
378.167, 191.917
378.406, 158.562
378.644, 151.661
378.883, 179.265
379.122, 179.265
379.361, 172.364
379.6, 191.917
379.839, 179.265
380.078, 185.016
380.317, 151.661
380.556, 185.016
380.794, 144.76
381.033, 165.463
381.272, 159.712
381.511, 185.016
381.75, 166.613
381.989, 158.562
382.228, 158.562
382.467, 166.613
382.706, 172.364
382.944, 185.016
383.183, 178.115
383.422, 172.364
383.661, 166.613
383.9, 179.265
384.139, 178.115
384.378, 158.562
384.617, 185.016
384.856, 179.265
385.094, 151.661
385.333, 178.115
385.572, 172.364
385.811, 144.76
386.05, 158.562
386.289, 178.115
386.528, 179.265
386.767, 166.613
387.006, 137.859
387.244, 165.463
387.483, 158.562
387.722, 158.562
387.961, 158.562
388.2, 179.265
388.439, 158.562
388.678, 172.364
388.917, 166.613
389.156, 159.712
389.394, 159.712
389.633, 137.859
389.872, 165.463
390.111, 159.712
390.35, 151.661
390.589, 158.562
390.828, 185.016
391.067, 158.562
391.306, 137.859
391.544, 165.463
391.783, 147.061
392.022, 165.463
392.261, 165.463
392.5, 185.016
392.739, 158.562
392.978, 166.613
393.217, 147.061
393.456, 158.562
393.694, 152.812
393.933, 159.712
394.172, 185.016
394.411, 137.859
394.65, 158.562
394.889, 172.364
395.128, 165.463
395.367, 151.661
395.606, 151.661
395.844, 158.562
396.083, 179.265
396.322, 151.661
396.561, 137.859
396.8, 172.364
397.039, 151.661
397.278, 191.917
397.517, 179.265
397.756, 185.016
397.994, 158.562
398.233, 165.463
398.472, 172.364
398.711, 172.364
398.95, 151.661
399.189, 151.661
399.428, 137.859
399.667, 172.364
399.906, 165.463
400.144, 205.719
400.383, 241.374
400.622, 251.725
400.861, 251.725
401.1, 219.521
401.339, 241.374
401.578, 241.374
401.817, 245.974
402.056, 235.623
402.294, 225.272
402.533, 235.623
402.772, 245.974
403.011, 262.077
403.25, 251.725
403.489, 256.326
403.728, 245.974
403.967, 262.077
404.206, 245.974
404.444, 229.872
404.683, 225.272
404.922, 245.974
405.161, 225.272
405.4, 245.974
405.639, 262.077
405.878, 251.725
406.117, 245.974
406.356, 245.974
406.594, 235.623
406.833, 241.374
407.072, 241.374
407.311, 225.272
407.55, 245.974
407.789, 229.872
408.028, 219.521
408.267, 251.725
408.506, 229.872
408.744, 262.077
408.983, 251.725
409.222, 213.77
409.461, 241.374
409.7, 256.326
409.939, 245.974
410.178, 225.272
410.417, 235.623
410.656, 229.872
410.894, 213.77
411.133, 241.374
411.372, 235.623
411.611, 245.974
411.85, 251.725
412.089, 245.974
412.328, 245.974
412.567, 251.725
412.806, 197.668
413.044, 229.872
413.283, 251.725
413.522, 241.374
413.761, 245.974
414, 251.725
414.239, 245.974
414.478, 219.521
414.717, 219.521
414.956, 241.374
415.194, 245.974
415.433, 251.725
415.672, 235.623
415.911, 229.872
416.15, 245.974
416.389, 235.623
416.628, 225.272
416.867, 256.326
417.106, 241.374
417.344, 235.623
417.583, 245.974
417.822, 241.374
418.061, 251.725
418.3, 251.725
418.539, 219.521
418.778, 229.872
419.017, 245.974
419.256, 245.974
419.494, 245.974
419.733, 241.374
419.972, 235.623
420.211, 235.623
420.45, 229.872
420.689, 245.974
420.928, 197.668
421.167, 235.623
421.406, 229.872
421.644, 235.623
421.883, 225.272
422.122, 241.374
422.361, 229.872
422.6, 241.374
422.839, 225.272
423.078, 241.374
423.317, 225.272
423.556, 229.872
423.794, 241.374
424.033, 229.872
424.272, 245.974
424.511, 256.326
424.75, 251.725
424.989, 241.374
425.228, 235.623
425.467, 225.272
425.706, 219.521
425.944, 225.272
426.183, 241.374
426.422, 235.623
426.661, 245.974
426.9, 235.623
427.139, 241.374
427.378, 245.974
427.617, 245.974
427.856, 251.725
428.094, 229.872
428.333, 213.77
428.572, 241.374
428.811, 245.974
429.05, 229.872
429.289, 245.974
429.528, 225.272
429.767, 251.725
430.006, 229.872
430.244, 241.374
430.483, 197.668
430.722, 229.872
430.961, 235.623
431.2, 241.374
431.439, 235.623
431.678, 241.374
431.917, 235.623
432.156, 225.272
432.394, 229.872
432.633, 235.623
432.872, 245.974
433.111, 245.974
433.35, 219.521
433.589, 235.623
433.828, 245.974
434.067, 245.974
434.306, 229.872
434.544, 241.374
434.783, 241.374
435.022, 229.872
435.261, 241.374
435.5, 225.272
435.739, 235.623
435.978, 235.623
436.217, 245.974
436.456, 219.521
436.694, 245.974
436.933, 235.623
437.172, 251.725
437.411, 256.326
437.65, 251.725
437.889, 251.725
438.128, 229.872
438.367, 208.019
438.606, 235.623
438.844, 229.872
439.083, 213.77
439.322, 197.668
439.561, 229.872
439.8, 229.872
440.039, 235.623
440.278, 241.374
440.517, 267.827
440.756, 202.268
440.994, 219.521
441.233, 202.268
441.472, 219.521
441.711, 213.77
441.95, 229.872
442.189, 235.623
442.428, 241.374
442.667, 251.725
442.906, 256.326
443.144, 235.623
443.383, 225.272
443.622, 213.77
443.861, 229.872
444.1, 229.872
444.339, 225.272
444.578, 229.872
444.817, 241.374
445.056, 245.974
445.294, 241.374
445.533, 241.374
445.772, 235.623
446.011, 219.521
446.25, 235.623
446.489, 225.272
446.728, 219.521
446.967, 245.974
447.206, 241.374
447.444, 245.974
447.683, 251.725
447.922, 251.725
448.161, 219.521
448.4, 235.623
448.639, 251.725
448.878, 245.974
449.117, 245.974
449.356, 251.725
449.594, 245.974
449.833, 229.872
450.072, 235.623
450.311, 245.974
450.55, 202.268
450.789, 229.872
451.028, 235.623
451.267, 235.623
451.506, 229.872
451.744, 235.623
451.983, 245.974
452.222, 251.725
452.461, 235.623
452.7, 256.326
452.939, 245.974
453.178, 241.374
453.417, 208.019
453.656, 241.374
453.894, 241.374
454.133, 256.326
454.372, 245.974
454.611, 219.521
454.85, 241.374
455.089, 245.974
455.328, 256.326
455.567, 251.725
455.806, 235.623
456.044, 245.974
456.283, 245.974
456.522, 251.725
456.761, 262.077
457, 256.326
457.239, 179.265
457.478, 144.76
457.717, 166.613
457.956, 180.415
458.194, 151.661
458.433, 173.514
458.672, 173.514
458.911, 137.859
459.15, 151.661
459.389, 173.514
459.628, 173.514
459.867, 166.613
460.106, 166.613
460.344, 166.613
460.583, 166.613
460.822, 166.613
461.061, 173.514
461.3, 158.562
461.539, 151.661
461.778, 158.562
462.017, 173.514
462.256, 151.661
462.494, 158.562
462.733, 158.562
462.972, 151.661
463.211, 166.613
463.45, 151.661
463.689, 166.613
463.928, 173.514
464.167, 158.562
464.406, 151.661
464.644, 158.562
464.883, 122.907
465.122, 137.859
465.361, 166.613
465.6, 151.661
465.839, 158.562
466.078, 144.76
466.317, 144.76
466.556, 151.661
466.794, 158.562
467.033, 158.562
467.272, 166.613
467.511, 137.859
467.75, 158.562
467.989, 173.514
468.228, 151.661
468.467, 158.562
468.706, 166.613
468.944, 137.859
469.183, 158.562
469.422, 173.514
469.661, 166.613
469.9, 137.859
470.139, 151.661
470.378, 151.661
470.617, 151.661
470.856, 158.562
471.094, 130.958
471.333, 173.514
471.572, 166.613
471.811, 137.859
472.05, 158.562
472.289, 166.613
472.528, 158.562
472.767, 151.661
473.006, 151.661
473.244, 137.859
473.483, 151.661
473.722, 137.859
473.961, 158.562
474.2, 173.514
474.439, 137.859
474.678, 151.661
474.917, 151.661
475.156, 158.562
475.394, 130.958
475.633, 151.661
475.872, 151.661
476.111, 158.562
476.35, 151.661
476.589, 151.661
476.828, 116.006
477.067, 158.562
477.306, 137.859
477.544, 158.562
477.783, 166.613
478.022, 130.958
478.261, 144.76
478.5, 158.562
478.739, 144.76
478.978, 130.958
479.217, 158.562
479.456, 151.661
479.694, 158.562
479.933, 151.661
480.172, 116.006
480.411, 158.562
480.65, 151.661
480.889, 166.613
481.128, 158.562
481.367, 144.76
481.606, 137.859
481.844, 130.958
482.083, 144.76
482.322, 151.661
482.561, 173.514
482.8, 166.613
483.039, 173.514
483.278, 137.859
483.517, 144.76
483.756, 151.661
483.994, 166.613
484.233, 173.514
484.472, 166.613
484.711, 151.661
484.95, 151.661
485.189, 166.613
485.428, 158.562
485.667, 151.661
485.906, 166.613
486.144, 151.661
486.383, 173.514
486.622, 144.76
486.861, 144.76
487.1, 151.661
487.339, 158.562
487.578, 173.514
487.817, 151.661
488.056, 151.661
488.294, 144.76
488.533, 173.514
488.772, 151.661
489.011, 151.661
489.25, 151.661
489.489, 173.514
489.728, 166.613
489.967, 166.613
490.206, 166.613
490.444, 158.562
490.683, 166.613
490.922, 144.76
491.161, 151.661
491.4, 166.613
491.639, 151.661
491.878, 151.661
492.117, 158.562
492.356, 158.562
492.594, 144.76
492.833, 173.514
493.072, 166.613
493.311, 151.661
493.55, 166.613
493.789, 166.613
494.028, 158.562
494.267, 173.514
494.506, 166.613
494.744, 144.76
494.983, 173.514
495.222, 180.415
495.461, 166.613
495.7, 158.562
495.939, 166.613
496.178, 180.415
496.417, 158.562
496.656, 173.514
496.894, 151.661
497.133, 151.661
497.372, 158.562
497.611, 157.412
497.85, 151.661
498.089, 158.562
498.328, 130.958
498.567, 144.76
498.806, 187.316
499.044, 173.514
499.283, 158.562
499.522, 158.562
499.761, 173.514
500, 151.661
500.239, 173.514
500.478, 158.562
500.717, 158.562
500.956, 158.562
501.194, 173.514
501.433, 180.415
501.672, 137.859
501.911, 144.76
502.15, 166.613
502.389, 144.76
502.628, 166.613
502.867, 158.562
503.106, 158.562
503.344, 158.562
503.583, 166.613
503.822, 173.514
504.061, 180.415
504.3, 166.613
504.539, 137.859
504.778, 158.562
505.017, 173.514
505.256, 173.514
505.494, 151.661
505.733, 144.76
505.972, 158.562
506.211, 166.613
506.45, 173.514
506.689, 173.514
506.928, 158.562
507.167, 166.613
507.406, 151.661
507.644, 158.562
507.883, 137.859
508.122, 151.661
508.361, 151.661
508.6, 151.661
508.839, 180.415
509.078, 166.613
509.317, 166.613
509.556, 151.661
509.794, 137.859
510.033, 151.661
510.272, 151.661
510.511, 151.661
510.75, 166.613
510.989, 173.514
511.228, 158.562
511.467, 158.562
511.706, 151.661
511.944, 166.613
512.183, 144.76
512.422, 151.661
512.661, 144.76
512.9, 158.562
513.139, 158.562
513.378, 158.562
513.617, 151.661
513.856, 173.514
514.094, 158.562
514.333, 158.562
514.572, 130.958
514.811, 166.613
515.05, 158.562
515.289, 173.514
515.528, 158.562
515.767, 166.613
516.006, 166.613
516.244, 158.562
516.483, 158.562
516.722, 166.613
516.961, 173.514
517.2, 158.562
517.439, 151.661
517.678, 173.514
517.917, 180.415
518.156, 173.514
518.394, 166.613
518.633, 144.76
518.872, 151.661
519.111, 166.613
519.35, 180.415
519.589, 158.562
519.828, 180.415
520.067, 151.661
520.306, 151.661
520.544, 173.514
520.783, 166.613
521.022, 151.661
521.261, 144.76
521.5, 158.562
521.739, 158.562
521.978, 158.562
522.217, 173.514
522.456, 151.661
522.694, 151.661
522.933, 180.415
523.172, 173.514
523.411, 144.76
523.65, 166.613
523.889, 180.415
524.128, 180.415
524.367, 151.661
524.606, 173.514
524.844, 144.76
525.083, 144.76
525.322, 166.613
525.561, 158.562
525.8, 151.661
526.039, 166.613
526.278, 180.415
526.517, 173.514
526.756, 158.562
526.994, 166.613
527.233, 166.613
527.472, 180.415
527.711, 151.661
527.95, 173.514
528.189, 144.76
528.428, 144.76
528.667, 173.514
528.906, 173.514
529.144, 158.562
529.383, 166.613
529.622, 151.661
529.861, 173.514
530.1, 187.316
530.339, 166.613
530.578, 151.661
530.817, 166.613
531.056, 173.514
531.294, 151.661
531.533, 158.562
531.772, 158.562
532.011, 180.415
532.25, 173.514
532.489, 158.562
532.728, 173.514
532.967, 144.76
533.206, 166.613
533.444, 180.415
533.683, 158.562
533.922, 144.76
534.161, 166.613
534.4, 144.76
534.639, 158.562
534.878, 180.415
535.117, 144.76
535.356, 158.562
535.594, 70
535.833, 166.613
536.072, 173.514
536.311, 137.859
536.55, 144.76
536.789, 144.76
537.028, 158.562
537.267, 151.661
537.506, 151.661
537.744, 158.562
537.983, 151.661
538.222, 180.415
538.461, 173.514
538.7, 173.514
538.939, 173.514
539.178, 158.562
539.417, 158.562
539.656, 158.562
539.894, 166.613
540.133, 158.562
540.372, 173.514
540.611, 180.415
540.85, 158.562
541.089, 151.661
541.328, 173.514
541.567, 180.415
541.806, 158.562
542.044, 166.613
542.283, 180.415
542.522, 166.613
542.761, 166.613
543, 180.415
543.239, 251.725
543.478, 259.776
543.717, 259.776
543.956, 254.026
544.194, 270.128
544.433, 265.527
544.672, 265.527
544.911, 278.179
545.15, 254.026
545.389, 259.776
545.628, 254.026
545.867, 254.026
546.106, 259.776
546.344, 259.776
546.583, 270.128
546.822, 265.527
547.061, 237.923
547.3, 237.923
547.539, 249.425
547.778, 237.923
548.017, 256.326
548.256, 265.527
548.494, 249.425
548.733, 243.674
548.972, 259.776
549.211, 265.527
549.45, 243.674
549.689, 259.776
549.928, 233.323
550.167, 237.923
550.406, 243.674
550.644, 249.425
550.883, 259.776
551.122, 237.923
551.361, 216.07
551.6, 249.425
551.839, 249.425
552.078, 249.425
552.317, 249.425
552.556, 249.425
552.794, 233.323
553.033, 210.319
553.272, 237.923
553.511, 254.026
553.75, 216.07
553.989, 233.323
554.228, 227.572
554.467, 243.674
554.706, 237.923
554.944, 249.425
555.183, 221.821
555.422, 210.319
555.661, 237.923
555.9, 249.425
556.139, 233.323
556.378, 254.026
556.617, 259.776
556.856, 249.425
557.094, 249.425
557.333, 265.527
557.572, 243.674
557.811, 249.425
558.05, 243.674
558.289, 204.569
558.528, 243.674
558.767, 259.776
559.006, 227.572
559.244, 243.674
559.483, 216.07
559.722, 221.821
559.961, 249.425
560.2, 265.527
560.439, 243.674
560.678, 237.923
560.917, 249.425
561.156, 249.425
561.394, 259.776
561.633, 249.425
561.872, 227.572
562.111, 233.323
562.35, 210.319
562.589, 233.323
562.828, 249.425
563.067, 249.425
563.306, 249.425
563.544, 243.674
563.783, 243.674
564.022, 254.026
564.261, 227.572
564.5, 233.323
564.739, 254.026
564.978, 254.026
565.217, 249.425
565.456, 254.026
565.694, 243.674
565.933, 243.674
566.172, 204.569
566.411, 251.725
566.65, 237.923
566.889, 254.026
567.128, 259.776
567.367, 221.821
567.606, 227.572
567.844, 233.323
568.083, 233.323
568.322, 254.026
568.561, 254.026
568.8, 221.821
569.039, 233.323
569.278, 237.923
569.517, 237.923
569.756, 254.026
569.994, 249.425
570.233, 243.674
570.472, 243.674
570.711, 198.818
570.95, 233.323
571.189, 233.323
571.428, 237.923
571.667, 243.674
571.906, 243.674
572.144, 243.674
572.383, 249.425
572.622, 237.923
572.861, 237.923
573.1, 233.323
573.339, 221.821
573.578, 243.674
573.817, 243.674
574.056, 237.923
574.294, 237.923
574.533, 249.425
574.772, 249.425
575.011, 249.425
575.25, 243.674
575.489, 254.026
575.728, 243.674
575.967, 229.872
576.206, 243.674
576.444, 243.674
576.683, 254.026
576.922, 243.674
577.161, 210.319
577.4, 237.923
577.639, 254.026
577.878, 237.923
578.117, 249.425
578.356, 237.923
578.594, 237.923
578.833, 249.425
579.072, 204.569
579.311, 237.923
579.55, 249.425
579.789, 249.425
580.028, 254.026
580.267, 254.026
580.506, 221.821
580.744, 233.323
580.983, 254.026
581.222, 243.674
581.461, 243.674
581.7, 259.776
581.939, 249.425
582.178, 243.674
582.417, 249.425
582.656, 233.323
582.894, 249.425
583.133, 259.776
583.372, 249.425
583.611, 243.674
583.85, 254.026
584.089, 254.026
584.328, 259.776
584.567, 254.026
584.806, 237.923
585.044, 243.674
585.283, 254.026
585.522, 259.776
585.761, 259.776
586, 265.527
586.239, 237.923
586.478, 259.776
586.717, 254.026
586.956, 249.425
587.194, 243.674
587.433, 237.923
587.672, 254.026
587.911, 233.323
588.15, 249.425
588.389, 249.425
588.628, 254.026
588.867, 254.026
589.106, 265.527
589.344, 270.128
589.583, 270.128
589.822, 254.026
590.061, 254.026
590.3, 270.128
590.539, 259.776
590.778, 249.425
591.017, 265.527
591.256, 254.026
591.494, 254.026
591.733, 270.128
591.972, 254.026
592.211, 254.026
592.45, 249.425
592.689, 227.572
592.928, 237.923
593.167, 243.674
593.406, 233.323
593.644, 249.425
593.883, 237.923
594.122, 249.425
594.361, 249.425
594.6, 267.827
594.839, 259.776
595.078, 249.425
595.317, 233.323
595.556, 249.425
595.794, 259.776
596.033, 254.026
596.272, 243.674
596.511, 259.776
596.75, 259.776
596.989, 259.776
597.228, 254.026
597.467, 254.026
597.706, 254.026
597.944, 249.425
598.183, 249.425
598.422, 254.026
598.661, 245.974
598.9, 249.425
599.139, 259.776
599.378, 254.026
599.617, 237.923
599.856, 243.674
600.094, 249.425
600.333, 203.419
600.572, 166.613
600.811, 122.907
601.05, 116.006
601.289, 122.907
601.528, 130.958
601.767, 137.859
602.006, 144.76
602.244, 151.661
602.483, 116.006
602.722, 137.859
602.961, 151.661
603.2, 151.661
603.439, 137.859
603.678, 137.859
603.917, 151.661
604.156, 130.958
604.394, 144.76
604.633, 137.859
604.872, 137.859
605.111, 151.661
605.35, 144.76
605.589, 158.562
605.828, 151.661
606.067, 130.958
606.306, 116.006
606.544, 144.76
606.783, 151.661
607.022, 144.76
607.261, 144.76
607.5, 151.661
607.739, 116.006
607.978, 158.562
608.217, 158.562
608.456, 130.958
608.694, 151.661
608.933, 158.562
609.172, 173.514
609.411, 158.562
609.65, 166.613
609.889, 144.76
610.128, 144.76
610.367, 130.958
610.606, 166.613
610.844, 151.661
611.083, 166.613
611.322, 173.514
611.561, 187.316
611.8, 151.661
612.039, 158.562
612.278, 180.415
612.517, 173.514
612.756, 151.661
612.994, 151.661
613.233, 173.514
613.472, 173.514
613.711, 173.514
613.95, 173.514
614.189, 151.661
614.428, 173.514
614.667, 173.514
614.906, 180.415
615.144, 158.562
615.383, 194.217
615.622, 166.613
615.861, 173.514
616.1, 151.661
616.339, 187.316
616.578, 166.613
616.817, 173.514
617.056, 173.514
617.294, 187.316
617.533, 173.514
617.772, 166.613
618.011, 166.613
618.25, 173.514
618.489, 180.415
618.728, 173.514
618.967, 180.415
619.206, 180.415
619.444, 151.661
619.683, 173.514
619.922, 180.415
620.161, 158.562
620.4, 180.415
620.639, 151.661
620.878, 173.514
621.117, 180.415
621.356, 151.661
621.594, 166.613
621.833, 173.514
622.072, 158.562
622.311, 180.415
622.55, 166.613
622.789, 158.562
623.028, 158.562
623.267, 173.514
623.506, 144.76
623.744, 166.613
623.983, 187.316
624.222, 180.415
624.461, 180.415
624.7, 173.514
624.939, 173.514
625.178, 187.316
625.417, 173.514
625.656, 173.514
625.894, 187.316
626.133, 187.316
626.372, 144.76
626.611, 158.562
626.85, 173.514
627.089, 166.613
627.328, 180.415
627.567, 180.415
627.806, 173.514
628.044, 166.613
628.283, 173.514
628.522, 166.613
628.761, 151.661
629, 166.613
629.239, 173.514
629.478, 151.661
629.717, 158.562
629.956, 151.661
630.194, 158.562
630.433, 158.562
630.672, 158.562
630.911, 180.415
631.15, 144.76
631.389, 144.76
631.628, 173.514
631.867, 166.613
632.106, 173.514
632.344, 173.514
632.583, 158.562
632.822, 158.562
633.061, 180.415
633.3, 173.514
633.539, 151.661
633.778, 158.562
634.017, 180.415
634.256, 137.859
634.494, 173.514
634.733, 166.613
634.972, 158.562
635.211, 166.613
635.45, 187.316
635.689, 166.613
635.928, 151.661
636.167, 166.613
636.406, 151.661
636.644, 180.415
636.883, 158.562
637.122, 180.415
637.361, 144.76
637.6, 166.613
637.839, 180.415
638.078, 158.562
638.317, 151.661
638.556, 173.514
638.794, 180.415
639.033, 166.613
639.272, 151.661
639.511, 166.613
639.75, 173.514
639.989, 173.514
640.228, 151.661
640.467, 151.661
640.706, 166.613
640.944, 173.514
641.183, 180.415
641.422, 173.514
641.661, 158.562
641.9, 158.562
642.139, 180.415
642.378, 194.217
642.617, 201.118
642.856, 173.514
643.094, 194.217
643.333, 194.217
643.572, 173.514
643.811, 166.613
644.05, 180.415
644.289, 173.514
644.528, 158.562
644.767, 166.613
645.006, 194.217
645.244, 194.217
645.483, 173.514
645.722, 180.415
645.961, 194.217
646.2, 180.415
646.439, 173.514
646.678, 151.661
646.917, 173.514
647.156, 187.316
647.394, 158.562
647.633, 194.217
647.872, 158.562
648.111, 173.514
648.35, 173.514
648.589, 158.562
648.828, 173.514
649.067, 173.514
649.306, 166.613
649.544, 173.514
649.783, 173.514
650.022, 166.613
650.261, 166.613
650.5, 166.613
650.739, 187.316
650.978, 166.613
651.217, 130.958
651.456, 158.562
651.694, 173.514
651.933, 166.613
652.172, 158.562
652.411, 173.514
652.65, 180.415
652.889, 180.415
653.128, 173.514
653.367, 254.026
653.606, 158.562
653.844, 166.613
654.083, 187.316
654.322, 151.661
654.561, 180.415
654.8, 151.661
655.039, 173.514
655.278, 166.613
655.517, 187.316
655.756, 180.415
655.994, 158.562
656.233, 158.562
656.472, 180.415
656.711, 180.415
656.95, 130.958
657.189, 173.514
657.428, 187.316
657.667, 166.613
657.906, 166.613
658.144, 166.613
658.383, 180.415
658.622, 144.76
658.861, 151.661
659.1, 158.562
659.339, 158.562
659.578, 158.562
659.817, 180.415
660.056, 151.661
660.294, 151.661
660.533, 130.958
660.772, 180.415
661.011, 166.613
661.25, 151.661
661.489, 166.613
661.728, 166.613
661.967, 166.613
662.206, 158.562
662.444, 166.613
662.683, 151.661
662.922, 151.661
663.161, 180.415
663.4, 158.562
663.639, 158.562
663.878, 144.76
664.117, 151.661
664.356, 173.514
664.594, 180.415
664.833, 166.613
665.072, 151.661
665.311, 194.217
665.55, 201.118
665.789, 194.217
666.028, 144.76
666.267, 151.661
666.506, 173.514
666.744, 180.415
666.983, 187.316
667.222, 144.76
667.461, 158.562
667.7, 180.415
667.939, 173.514
668.178, 180.415
668.417, 173.514
668.656, 173.514
668.894, 187.316
669.133, 180.415
669.372, 208.019
669.611, 187.316
669.85, 173.514
670.089, 180.415
670.328, 208.019
670.567, 187.316
670.806, 173.514
671.044, 194.217
671.283, 208.019
671.522, 194.217
671.761, 208.019
672, 194.217
672.239, 194.217
672.478, 187.316
672.717, 173.514
672.956, 187.316
673.194, 180.415
673.433, 144.76
673.672, 166.613
673.911, 158.562
674.15, 158.562
674.389, 173.514
674.628, 166.613
674.867, 151.661
675.106, 158.562
675.344, 158.562
675.583, 158.562
675.822, 166.613
676.061, 173.514
676.3, 158.562
676.539, 137.859
676.778, 166.613
677.017, 166.613
677.256, 144.76
677.494, 173.514
677.733, 173.514
677.972, 158.562
678.211, 158.562
678.45, 173.514
678.689, 173.514
678.928, 166.613
679.167, 144.76
679.406, 151.661
679.644, 173.514
679.883, 158.562
680.122, 173.514
680.361, 173.514
680.6, 173.514
680.839, 187.316
681.078, 187.316
681.317, 166.613
681.556, 180.415
681.794, 173.514
682.033, 180.415
682.272, 166.613
682.511, 166.613
682.75, 173.514
682.989, 158.562
683.228, 158.562
683.467, 166.613
683.706, 173.514
683.944, 173.514
684.183, 166.613
684.422, 166.613
684.661, 166.613
684.9, 151.661
685.139, 173.514
685.378, 173.514
685.617, 173.514
685.856, 180.415
686.094, 194.217
686.333, 194.217
686.572, 245.974
686.811, 275.879
687.05, 270.128
687.289, 275.879
687.528, 270.128
687.767, 259.776
688.006, 275.879
688.244, 259.776
688.483, 265.527
688.722, 265.527
688.961, 265.527
689.2, 265.527
689.439, 259.776
689.678, 221.821
689.917, 249.425
690.156, 259.776
690.394, 270.128
690.633, 270.128
690.872, 259.776
691.111, 259.776
691.35, 265.527
691.589, 265.527
691.828, 265.527
692.067, 265.527
692.306, 265.527
692.544, 254.026
692.783, 265.527
693.022, 265.527
693.261, 243.674
693.5, 270.128
693.739, 254.026
693.978, 259.776
694.217, 243.674
694.456, 249.425
694.694, 270.128
694.933, 249.425
695.172, 259.776
695.411, 265.527
695.65, 270.128
695.889, 249.425
696.128, 265.527
696.367, 243.674
696.606, 249.425
696.844, 259.776
697.083, 254.026
697.322, 270.128
697.561, 265.527
697.8, 237.923
698.039, 254.026
698.278, 254.026
698.517, 249.425
698.756, 254.026
698.994, 181.565
699.233, 249.425
699.472, 270.128
699.711, 259.776
699.95, 265.527
700.189, 259.776
700.428, 259.776
700.667, 265.527
700.906, 270.128
701.144, 265.527
701.383, 254.026
701.622, 259.776
701.861, 265.527
702.1, 221.821
702.339, 216.07
702.578, 254.026
702.817, 243.674
703.056, 237.923
703.294, 243.674
703.533, 254.026
703.772, 275.879
704.011, 249.425
704.25, 221.821
704.489, 259.776
704.728, 270.128
704.967, 265.527
705.206, 237.923
705.444, 233.323
705.683, 259.776
705.922, 259.776
706.161, 254.026
706.4, 259.776
706.639, 249.425
706.878, 254.026
707.117, 254.026
707.356, 221.821
707.594, 249.425
707.833, 265.527
708.072, 259.776
708.311, 265.527
708.55, 227.572
708.789, 237.923
709.028, 254.026
709.267, 259.776
709.506, 259.776
709.744, 259.776
709.983, 227.572
710.222, 249.425
710.461, 249.425
710.7, 259.776
710.939, 254.026
711.178, 254.026
711.417, 233.323
711.656, 254.026
711.894, 265.527
712.133, 259.776
712.372, 216.07
712.611, 233.323
712.85, 243.674
713.089, 259.776
713.328, 254.026
713.567, 249.425
713.806, 254.026
714.044, 265.527
714.283, 249.425
714.522, 265.527
714.761, 221.821
715, 237.923
715.239, 233.323
715.478, 259.776
715.717, 237.923
715.956, 221.821
716.194, 233.323
716.433, 237.923
716.672, 254.026
716.911, 259.776
717.15, 254.026
717.389, 249.425
717.628, 221.821
717.867, 243.674
718.106, 254.026
718.344, 243.674
718.583, 243.674
718.822, 249.425
719.061, 249.425
719.3, 237.923
719.539, 254.026
719.778, 259.776
720.017, 233.323
720.256, 233.323
720.494, 243.674
720.733, 243.674
720.972, 249.425
721.211, 254.026
721.45, 221.821
721.689, 243.674
721.928, 259.776
722.167, 237.923
722.406, 254.026
722.644, 254.026
722.883, 249.425
723.122, 221.821
723.361, 243.674
723.6, 243.674
723.839, 227.572
724.078, 249.425
724.317, 243.674
724.556, 216.07
724.794, 243.674
725.033, 243.674
725.272, 259.776
725.511, 233.323
725.75, 198.818
725.989, 237.923
726.228, 249.425
726.467, 254.026
726.706, 243.674
726.944, 249.425
727.183, 254.026
727.422, 259.776
727.661, 254.026
727.9, 259.776
728.139, 259.776
728.378, 249.425
728.617, 249.425
728.856, 259.776
729.094, 254.026
729.333, 249.425
729.572, 259.776
729.811, 243.674
730.05, 237.923
730.289, 259.776
730.528, 237.923
730.767, 254.026
731.006, 259.776
731.244, 259.776
731.483, 233.323
731.722, 254.026
731.961, 265.527
732.2, 270.128
732.439, 227.572
732.678, 259.776
732.917, 265.527
733.156, 193.067
733.394, 233.323
733.633, 243.674
733.872, 243.674
734.111, 265.527
734.35, 265.527
734.589, 249.425
734.828, 249.425
735.067, 254.026
735.306, 249.425
735.544, 243.674
735.783, 233.323
736.022, 233.323
736.261, 216.07
736.5, 249.425
736.739, 254.026
736.978, 249.425
737.217, 254.026
737.456, 270.128
737.694, 233.323
737.933, 243.674
738.172, 249.425
738.411, 249.425
738.65, 259.776
738.889, 254.026
739.128, 254.026
739.367, 270.128
739.606, 243.674
739.844, 254.026
740.083, 270.128
740.322, 265.527
740.561, 210.319
740.8, 243.674
741.039, 270.128
741.278, 270.128
741.517, 249.425
741.756, 249.425
741.994, 254.026
742.233, 243.674
742.472, 275.879
742.711, 265.527
742.95, 275.879
743.189, 265.527
743.428, 249.425
743.667, 259.776
743.906, 254.026
744.144, 195.367
744.383, 158.562
744.622, 137.859
744.861, 151.661
745.1, 173.514
745.339, 166.613
745.578, 194.217
745.817, 194.217
746.056, 180.415
746.294, 137.859
746.533, 180.415
746.772, 173.514
747.011, 158.562
747.25, 166.613
747.489, 137.859
747.728, 166.613
747.967, 173.514
748.206, 144.76
748.444, 151.661
748.683, 180.415
748.922, 158.562
749.161, 137.859
749.4, 166.613
749.639, 144.76
749.878, 166.613
750.117, 173.514
750.356, 173.514
750.594, 158.562
750.833, 158.562
751.072, 173.514
751.311, 173.514
751.55, 173.514
751.789, 173.514
752.028, 151.661
752.267, 166.613
752.506, 180.415
752.744, 173.514
752.983, 181.565
753.222, 158.562
753.461, 144.76
753.7, 173.514
753.939, 166.613
754.178, 166.613
754.417, 166.613
754.656, 187.316
754.894, 166.613
755.133, 173.514
755.372, 158.562
755.611, 180.415
755.85, 151.661
756.089, 158.562
756.328, 166.613
756.567, 151.661
756.806, 158.562
757.044, 173.514
757.283, 166.613
757.522, 166.613
757.761, 187.316
758, 166.613
758.239, 173.514
758.478, 180.415
758.717, 187.316
758.956, 158.562
759.194, 187.316
759.433, 194.217
759.672, 158.562
759.911, 166.613
760.15, 180.415
760.389, 180.415
760.628, 144.76
760.867, 166.613
761.106, 180.415
761.344, 166.613
761.583, 144.76
761.822, 173.514
762.061, 201.118
762.3, 173.514
762.539, 166.613
762.778, 141.31
763.017, 173.514
763.256, 201.118
763.494, 187.316
763.733, 173.514
763.972, 173.514
764.211, 187.316
764.45, 157.412
764.689, 157.412
764.928, 193.067
765.167, 157.412
765.406, 186.166
765.644, 186.166
765.883, 172.364
766.122, 165.463
766.361, 179.265
766.6, 165.463
766.839, 179.265
767.078, 179.265
767.317, 179.265
767.556, 157.412
767.794, 179.265
768.033, 165.463
768.272, 172.364
768.511, 172.364
768.75, 172.364
768.989, 165.463
769.228, 157.412
769.467, 150.511
769.706, 165.463
769.944, 157.412
770.183, 172.364
770.422, 172.364
770.661, 150.511
770.9, 157.412
771.139, 142.46
771.378, 165.463
771.617, 142.46
771.856, 142.46
772.094, 157.412
772.333, 157.412
772.572, 172.364
772.811, 142.46
773.05, 150.511
773.289, 172.364
773.528, 165.463
773.767, 150.511
774.006, 157.412
774.244, 165.463
774.483, 172.364
774.722, 150.511
774.961, 165.463
775.2, 179.265
775.439, 150.511
775.678, 150.511
775.917, 150.511
776.156, 157.412
776.394, 179.265
776.633, 179.265
776.872, 128.658
777.111, 172.364
777.35, 157.412
777.589, 135.559
777.828, 135.559
778.067, 172.364
778.306, 186.166
778.544, 157.412
778.783, 165.463
779.022, 165.463
779.261, 165.463
779.5, 172.364
779.739, 179.265
779.978, 179.265
780.217, 157.412
780.456, 172.364
780.694, 193.067
780.933, 150.511
781.172, 157.412
781.411, 172.364
781.65, 186.166
781.889, 172.364
782.128, 157.412
782.367, 165.463
782.606, 165.463
782.844, 179.265
783.083, 186.166
783.322, 157.412
783.561, 157.412
783.8, 165.463
784.039, 186.166
784.278, 172.364
784.517, 157.412
784.756, 165.463
784.994, 157.412
785.233, 165.463
785.472, 172.364
785.711, 186.166
785.95, 165.463
786.189, 157.412
786.428, 179.265
786.667, 165.463
786.906, 172.364
787.144, 165.463
787.383, 157.412
787.622, 172.364
787.861, 186.166
788.1, 172.364
788.339, 165.463
788.578, 150.511
788.817, 172.364
789.056, 165.463
789.294, 172.364
789.533, 172.364
789.772, 165.463
790.011, 150.511
790.25, 172.364
790.489, 165.463
790.728, 172.364
790.967, 172.364
791.206, 186.166
791.444, 179.265
791.683, 179.265
791.922, 193.067
792.161, 193.067
792.4, 186.166
792.639, 165.463
792.878, 172.364
793.117, 172.364
793.356, 165.463
793.594, 150.511
793.833, 165.463
794.072, 172.364
794.311, 179.265
794.55, 179.265
794.789, 172.364
795.028, 165.463
795.267, 165.463
795.506, 179.265
795.744, 157.412
795.983, 150.511
796.222, 157.412
796.461, 150.511
796.7, 179.265
796.939, 179.265
797.178, 165.463
797.417, 165.463
797.656, 172.364
797.894, 186.166
798.133, 157.412
798.372, 165.463
798.611, 165.463
798.85, 165.463
799.089, 186.166
799.328, 186.166
799.567, 193.067
799.806, 199.968
800.044, 179.265
800.283, 150.511
800.522, 165.463
800.761, 179.265
801, 193.067
801.239, 251.725
801.478, 263.227
801.717, 286.23
801.956, 274.728
802.194, 263.227
802.433, 252.875
802.672, 257.476
802.911, 274.728
803.15, 280.479
803.389, 225.272
803.628, 263.227
803.867, 270.128
804.106, 229.872
804.344, 235.623
804.583, 241.374
804.822, 252.875
805.061, 252.875
805.3, 208.019
805.539, 241.374
805.778, 241.374
806.017, 259.776
806.256, 252.875
806.494, 257.476
806.733, 241.374
806.972, 247.125
807.211, 225.272
807.45, 229.872
807.689, 252.875
807.928, 235.623
808.167, 241.374
808.406, 418.498
808.644, 225.272
808.883, 229.872
809.122, 225.272
809.361, 241.374
809.6, 235.623
809.839, 241.374
810.078, 241.374
810.317, 268.978
810.556, 252.875
810.794, 235.623
811.033, 252.875
811.272, 241.374
811.511, 263.227
811.75, 257.476
811.989, 225.272
812.228, 247.125
812.467, 241.374
812.706, 219.521
812.944, 243.674
813.183, 247.125
813.422, 247.125
813.661, 247.125
813.9, 247.125
814.139, 263.227
814.378, 241.374
814.617, 252.875
814.856, 235.623
815.094, 241.374
815.333, 247.125
815.572, 247.125
815.811, 235.623
816.05, 229.872
816.289, 225.272
816.528, 219.521
816.767, 243.674
817.006, 247.125
817.244, 252.875
817.483, 241.374
817.722, 235.623
817.961, 263.227
818.2, 247.125
818.439, 241.374
818.678, 247.125
818.917, 263.227
819.156, 270.128
819.394, 247.125
819.633, 257.476
819.872, 252.875
820.111, 252.875
820.35, 263.227
820.589, 270.128
820.828, 263.227
821.067, 257.476
821.306, 259.776
821.544, 252.875
821.783, 252.875
822.022, 257.476
822.261, 257.476
822.5, 252.875
822.739, 241.374
822.978, 247.125
823.217, 268.978
823.456, 252.875
823.694, 219.521
823.933, 235.623
824.172, 252.875
824.411, 257.476
824.65, 257.476
824.889, 219.521
825.128, 241.374
825.367, 263.227
825.606, 247.125
825.844, 229.872
826.083, 252.875
826.322, 247.125
826.561, 257.476
826.8, 268.978
827.039, 229.872
827.278, 229.872
827.517, 252.875
827.756, 257.476
827.994, 265.527
828.233, 247.125
828.472, 229.872
828.711, 247.125
828.95, 241.374
829.189, 241.374
829.428, 252.875
829.667, 252.875
829.906, 252.875
830.144, 247.125
830.383, 219.521
830.622, 247.125
830.861, 257.476
831.1, 263.227
831.339, 252.875
831.578, 247.125
831.817, 259.776
832.056, 235.623
832.294, 247.125
832.533, 257.476
832.772, 280.479
833.011, 229.872
833.25, 241.374
833.489, 241.374
833.728, 219.521
833.967, 265.527
834.206, 268.978
834.444, 263.227
834.683, 257.476
834.922, 257.476
835.161, 252.875
835.4, 268.978
835.639, 268.978
835.878, 274.728
836.117, 274.728
836.356, 285.08
836.594, 247.125
836.833, 247.125
837.072, 274.728
837.311, 229.872
837.55, 254.026
837.789, 263.227
838.028, 225.272
838.267, 247.125
838.506, 252.875
838.744, 268.978
838.983, 252.875
839.222, 274.728
839.461, 263.227
839.7, 263.227
839.939, 274.728
840.178, 257.476
840.417, 208.019
840.656, 257.476
840.894, 274.728
841.133, 274.728
841.372, 295.431
841.611, 257.476
841.85, 274.728
842.089, 247.125
842.328, 225.272
842.567, 241.374
842.806, 270.128
843.044, 213.77
843.283, 254.026
843.522, 241.374
843.761, 254.026
844, 252.875
844.239, 252.875
844.478, 243.674
844.717, 225.272
844.956, 241.374
845.194, 235.623
845.433, 247.125
845.672, 247.125
845.911, 202.268
846.15, 243.674
846.389, 254.026
846.628, 252.875
846.867, 235.623
847.106, 254.026
847.344, 241.374
847.583, 219.521
847.822, 241.374
848.061, 247.125
848.3, 263.227
848.539, 257.476
848.778, 252.875
849.017, 252.875
849.256, 254.026
849.494, 263.227
849.733, 252.875
849.972, 252.875
850.211, 247.125
850.45, 270.128
850.689, 257.476
850.928, 252.875
851.167, 265.527
851.406, 263.227
851.644, 257.476
851.883, 265.527
852.122, 270.128
852.361, 263.227
852.6, 252.875
852.839, 270.128
853.078, 252.875
853.317, 252.875
853.556, 259.776
853.794, 257.476
854.033, 241.374
854.272, 241.374
854.511, 227.572
854.75, 252.875
854.989, 259.776
855.228, 252.875
855.467, 235.623
855.706, 270.128
855.944, 254.026
856.183, 274.728
856.422, 235.623
856.661, 257.476
856.9, 247.125
857.139, 275.879
857.378, 263.227
857.617, 263.227
857.856, 268.978
858.094, 235.623
858.333, 263.227
858.572, 280.479
858.811, 194.217
859.05, 179.265
859.289, 165.463
859.528, 172.364
859.767, 165.463
860.006, 179.265
860.244, 172.364
860.483, 142.46
860.722, 157.412
860.961, 165.463
861.2, 150.511
861.439, 157.412
861.678, 150.511
861.917, 165.463
862.156, 165.463
862.394, 142.46
862.633, 157.412
862.872, 157.412
863.111, 128.658
863.35, 150.511
863.589, 150.511
863.828, 172.364
864.067, 165.463
864.306, 135.559
864.544, 150.511
864.783, 165.463
865.022, 150.511
865.261, 150.511
865.5, 157.412
865.739, 165.463
865.978, 150.511
866.217, 150.511
866.456, 150.511
866.694, 105.655
866.933, 165.463
867.172, 142.46
867.411, 142.46
867.65, 165.463
867.889, 150.511
868.128, 142.46
868.367, 128.658
868.606, 179.265
868.844, 172.364
869.083, 165.463
869.322, 150.511
869.561, 157.412
869.8, 165.463
870.039, 157.412
870.278, 165.463
870.517, 165.463
870.756, 165.463
870.994, 165.463
871.233, 179.265
871.472, 165.463
871.711, 150.511
871.95, 172.364
872.189, 186.166
872.428, 172.364
872.667, 179.265
872.906, 179.265
873.144, 165.463
873.383, 165.463
873.622, 172.364
873.861, 172.364
874.1, 135.559
874.339, 165.463
874.578, 179.265
874.817, 165.463
875.056, 157.412
875.294, 165.463
875.533, 172.364
875.772, 172.364
876.011, 186.166
876.25, 179.265
876.489, 157.412
876.728, 150.511
876.967, 142.46
877.206, 157.412
877.444, 157.412
877.683, 172.364
877.922, 186.166
878.161, 172.364
878.4, 165.463
878.639, 157.412
878.878, 165.463
879.117, 172.364
879.356, 150.511
879.594, 157.412
879.833, 179.265
880.072, 179.265
880.311, 172.364
880.55, 186.166
880.789, 179.265
881.028, 165.463
881.267, 179.265
881.506, 179.265
881.744, 172.364
881.983, 172.364
882.222, 150.511
882.461, 165.463
882.7, 179.265
882.939, 193.067
883.178, 186.166
883.417, 165.463
883.656, 172.364
883.894, 157.412
884.133, 172.364
884.372, 186.166
884.611, 172.364
884.85, 150.511
885.089, 179.265
885.328, 179.265
885.567, 179.265
885.806, 179.265
886.044, 165.463
886.283, 135.559
886.522, 150.511
886.761, 186.166
887, 165.463
887.239, 165.463
887.478, 135.559
887.717, 172.364
887.956, 157.412
888.194, 199.968
888.433, 186.166
888.672, 186.166
888.911, 186.166
889.15, 186.166
889.389, 179.265
889.628, 186.166
889.867, 193.067
890.106, 186.166
890.344, 186.166
890.583, 186.166
890.822, 172.364
891.061, 150.511
891.3, 186.166
891.539, 179.265
891.778, 193.067
892.017, 157.412
892.256, 150.511
892.494, 165.463
892.733, 193.067
892.972, 186.166
893.211, 193.067
893.45, 193.067
893.689, 172.364
893.928, 172.364
894.167, 157.412
894.406, 165.463
894.644, 186.166
894.883, 193.067
895.122, 193.067
895.361, 206.869
895.6, 186.166
895.839, 213.77
896.078, 186.166
896.317, 150.511
896.556, 172.364
896.794, 172.364
897.033, 179.265
897.272, 172.364
897.511, 172.364
897.75, 165.463
897.989, 179.265
898.228, 179.265
898.467, 172.364
898.706, 193.067
898.944, 199.968
899.183, 193.067
899.422, 199.968
899.661, 199.968
899.9, 220.671
900.139, 186.166
900.378, 186.166
900.617, 193.067
900.856, 186.166
901.094, 186.166
901.333, 172.364
901.572, 179.265
901.811, 179.265
902.05, 193.067
902.289, 213.77
902.528, 193.067
902.767, 213.77
903.006, 213.77
903.244, 206.869
903.483, 199.968
903.722, 193.067
903.961, 150.511
904.2, 186.166
904.439, 186.166
904.678, 206.869
904.917, 179.265
905.156, 186.166
905.394, 172.364
905.633, 193.067
905.872, 213.77
906.111, 199.968
906.35, 206.869
906.589, 199.968
906.828, 193.067
907.067, 193.067
907.306, 186.166
907.544, 193.067
907.783, 199.968
908.022, 199.968
908.261, 172.364
908.5, 193.067
908.739, 220.671
908.978, 227.572
909.217, 206.869
909.456, 206.869
909.694, 220.671
909.933, 199.968
910.172, 220.671
910.411, 199.968
910.65, 206.869
910.889, 172.364
911.128, 179.265
911.367, 193.067
911.606, 165.463
911.844, 165.463
912.083, 186.166
912.322, 179.265
912.561, 193.067
912.8, 172.364
913.039, 172.364
913.278, 172.364
913.517, 172.364
913.756, 165.463
913.994, 186.166
914.233, 186.166
914.472, 179.265
914.711, 179.265
914.95, 179.265
915.189, 186.166
915.428, 213.77
915.667, 206.869
915.906, 319.585
916.144, 357.54
916.383, 357.54
916.622, 371.342
916.861, 374.792
917.1, 374.792
917.339, 386.294
917.578, 395.495
917.817, 395.495
918.056, 395.495
918.294, 395.495
918.533, 395.495
918.772, 401.246
919.011, 401.246
919.25, 398.946
919.489, 404.696
919.728, 410.447
919.967, 406.997
920.206, 412.748
920.444, 418.498
920.683, 418.498
920.922, 418.498
921.161, 412.748
921.4, 416.198
921.639, 412.748
921.878, 416.198
922.117, 416.198
922.356, 421.949
922.594, 424.249
922.833, 424.249
923.072, 424.249
923.311, 424.249
923.55, 424.249
923.789, 427.7
924.028, 427.7
924.267, 430
924.506, 430
924.744, 427.7
924.983, 424.249
925.222, 424.249
925.461, 418.498
925.7, 418.498
925.939, 410.447
926.178, 410.447
926.417, 416.198
926.656, 412.748
926.894, 401.246
927.133, 404.696
927.372, 406.997
927.611, 410.447
927.85, 416.198
928.089, 416.198
928.328, 418.498
928.567, 416.198
928.806, 410.447
929.044, 410.447
929.283, 406.997
929.522, 412.748
929.761, 410.447
"/>
<text x="10" y="20" font-family="Verdana" font-size="12" fill="blue">Mean: 260.061</text>
<text x="10" y="32" font-family="Verdana" font-size="12" fill="blue">Standard Deviation: 52.7098</text>
<text x="10" y="44" font-family="Verdana" font-size="12" fill="blue">Minimum: 75</text>
<text x="10" y="56" font-family="Verdana" font-size="12" fill="blue">Maximum: 388</text>
<polyline fill="none" stroke="#0074d9" stroke-width="3" points="70,430 930,430"/>
<polyline fill="none" stroke="#0074d9" stroke-width="3" points="70,430 70,70"/>
<text x="910" y="450" font-family="Verdana" font-size="12" fill="blue">3600</text>
<text x="70" y="450" font-family="Verdana" font-size="12" fill="blue">0</text>
<text x="45" y="430" font-family="Verdana" font-size="12" fill="blue">75</text>
<text x="40" y="80" font-family="Verdana" font-size="12" fill="blue">388</text>
</svg>
